<svg width="240" height="180" viewBox="0 0 240 180" fill="none" xmlns="http://www.w3.org/2000/svg">
<path opacity="0.302" d="M74.787 61.722C86.5386 41.4192 101.652 44.1156 111.022 71.1222C120.392 98.1282 142.685 108.56 165.262 90.1506C173.678 81.9798 186.404 81.6978 191.709 102.986C192.971 110.137 193.526 114.301 193.375 115.479H20.8206C20.8206 108.618 23.8014 101.611 29.7636 94.458C43.5456 79.4916 63.0354 82.0248 74.787 61.722Z" fill="url(#paint0_linear_153_34835)"/>
<path opacity="0.302" d="M113.623 121.537C113.623 121.537 73.5684 121.537 53.709 100.244C41.2314 87.0762 28.1142 94.1052 23.4 124.165C23.3934 124.528 53.4672 124.528 113.623 124.165V121.537Z" fill="url(#paint1_linear_153_34835)"/>
<path d="M147.039 54.4056H104.195C103.557 54.4056 102.945 54.6591 102.494 55.1103C102.043 55.5615 101.789 56.1735 101.789 56.8116V122.327C101.789 122.965 102.043 123.577 102.494 124.028C102.945 124.479 103.557 124.733 104.195 124.733H147.039C147.677 124.733 148.289 124.479 148.74 124.028C149.192 123.577 149.445 122.965 149.445 122.327V56.8116C149.445 56.1735 149.192 55.5615 148.74 55.1103C148.289 54.6591 147.677 54.4056 147.039 54.4056Z" fill="url(#paint2_linear_153_34835)"/>
<path d="M150.74 54.4056H107.897C107.259 54.4056 106.647 54.6591 106.196 55.1103C105.744 55.5615 105.491 56.1735 105.491 56.8116V122.327C105.491 122.965 105.744 123.577 106.196 124.028C106.647 124.479 107.259 124.733 107.897 124.733H150.74C151.379 124.733 151.99 124.479 152.442 124.028C152.893 123.577 153.146 122.965 153.146 122.327V56.8116C153.146 56.1735 152.893 55.5615 152.442 55.1103C151.99 54.6591 151.379 54.4056 150.74 54.4056Z" fill="url(#paint3_linear_153_34835)"/>
<path d="M124.973 98.8848V97.1136H124.037V95.1984H122.237V97.1136H120.091L123.605 90.0864H121.56L118.046 97.1136V98.8848H122.237V100.339H124.037V98.8848H124.973Z" fill="#B4EAD9"/>
<path d="M132.446 97.3728V93.0528C132.446 91.0944 131.006 90 129.336 90C127.665 90 126.211 91.0944 126.211 93.0528V97.3728C126.211 99.3312 127.665 100.426 129.336 100.426C131.006 100.426 132.446 99.3312 132.446 97.3728ZM130.574 97.3584C130.574 98.2224 130.07 98.7408 129.336 98.7408C128.601 98.7408 128.083 98.2224 128.083 97.3584V93.0816C128.083 92.2176 128.601 91.6848 129.336 91.6848C130.07 91.6848 130.574 92.2176 130.574 93.0816V97.3584Z" fill="#B4EAD9"/>
<path d="M140.61 98.8848V97.1136H139.674V95.1984H137.874V97.1136H135.729L139.242 90.0864H137.198L133.684 97.1136V98.8848H137.874V100.339H139.674V98.8848H140.61Z" fill="#B4EAD9"/>
<path d="M146.532 64.122H112.106C111.947 64.122 111.794 64.1852 111.682 64.2977C111.569 64.4103 111.506 64.5629 111.506 64.722V66.4356C111.506 66.5947 111.569 66.7473 111.682 66.8599C111.794 66.9724 111.947 67.0356 112.106 67.0356H146.532C146.691 67.0356 146.844 66.9724 146.956 66.8599C147.069 66.7473 147.132 66.5947 147.132 66.4356V64.722C147.132 64.5629 147.069 64.4103 146.956 64.2977C146.844 64.1852 146.691 64.122 146.532 64.122ZM146.532 71.0622H112.106C111.947 71.0622 111.794 71.1254 111.682 71.2379C111.569 71.3505 111.506 71.5031 111.506 71.6622V73.3758C111.506 73.5349 111.569 73.6876 111.682 73.8001C111.794 73.9126 111.947 73.9758 112.106 73.9758H146.532C146.691 73.9758 146.844 73.9126 146.956 73.8001C147.069 73.6876 147.132 73.5349 147.132 73.3758V71.6622C147.132 71.5031 147.069 71.3505 146.956 71.2379C146.844 71.1254 146.691 71.0622 146.532 71.0622ZM128.95 78.0024H112.106C111.947 78.0024 111.794 78.0656 111.682 78.1781C111.569 78.2907 111.506 78.4433 111.506 78.6024V80.316C111.506 80.4751 111.569 80.6278 111.682 80.7403C111.794 80.8528 111.947 80.916 112.106 80.916H128.95C129.109 80.916 129.262 80.8528 129.374 80.7403C129.487 80.6278 129.55 80.4751 129.55 80.316V78.6024C129.55 78.4433 129.487 78.2907 129.374 78.1781C129.262 78.0656 129.109 78.0024 128.95 78.0024Z" fill="#EBEBF2"/>
<path d="M71.715 124.27C76.3146 124.27 80.0436 120.541 80.0436 115.942C80.0436 111.343 76.3146 107.614 71.715 107.614C67.1154 107.614 63.387 111.343 63.387 115.942C63.387 120.541 67.1154 124.27 71.715 124.27Z" fill="url(#paint4_linear_153_34835)"/>
<path d="M72.1776 111.315C72.1776 111.192 72.1289 111.075 72.0421 110.988C71.9554 110.901 71.8377 110.852 71.715 110.852C71.5923 110.852 71.4746 110.901 71.3879 110.988C71.3011 111.075 71.2524 111.192 71.2524 111.315V113.166C71.2524 113.289 71.3011 113.406 71.3879 113.493C71.4746 113.58 71.5923 113.629 71.715 113.629C71.8377 113.629 71.9554 113.58 72.0421 113.493C72.1289 113.406 72.1776 113.289 72.1776 113.166V111.315Z" fill="#51CDA6"/>
<path opacity="0.9" d="M75.0438 112.695C75.1163 112.6 75.1494 112.481 75.1363 112.363C75.1233 112.244 75.0649 112.135 74.9735 112.059C74.8821 111.982 74.7647 111.944 74.6457 111.951C74.5267 111.959 74.4152 112.013 74.3346 112.1L73.1454 113.518C73.1064 113.565 73.0769 113.618 73.0586 113.676C73.0403 113.734 73.0337 113.795 73.039 113.856C73.0496 113.978 73.1084 114.091 73.2024 114.17C73.2964 114.249 73.4178 114.287 73.54 114.276C73.6622 114.266 73.7752 114.207 73.854 114.113L75.0438 112.695Z" fill="#51CDA6"/>
<path opacity="0.7" d="M76.3524 115.594C76.4122 115.584 76.4694 115.561 76.5207 115.529C76.5719 115.496 76.6162 115.454 76.6511 115.404C76.6859 115.354 76.7106 115.298 76.7238 115.239C76.7369 115.179 76.7383 115.118 76.7277 115.058C76.7171 114.998 76.6949 114.941 76.6622 114.89C76.6296 114.839 76.5872 114.794 76.5374 114.759C76.4876 114.725 76.4314 114.7 76.3721 114.687C76.3128 114.674 76.2514 114.672 76.1916 114.683L74.3688 115.004C74.2479 115.026 74.1405 115.094 74.0701 115.195C73.9997 115.295 73.9722 115.42 73.9935 115.54C74.0148 115.661 74.0833 115.769 74.1838 115.839C74.2844 115.91 74.4087 115.937 74.5296 115.916L76.3524 115.594Z" fill="#51CDA6"/>
<path opacity="0.6" d="M75.4908 118.656C75.5971 118.717 75.7234 118.734 75.842 118.702C75.9605 118.67 76.0616 118.593 76.1229 118.486C76.1842 118.38 76.2009 118.254 76.1691 118.135C76.1373 118.017 76.0597 117.916 75.9534 117.854L74.3508 116.929C74.2449 116.874 74.1219 116.862 74.0074 116.896C73.8928 116.929 73.7956 117.005 73.7359 117.109C73.6763 117.212 73.6588 117.334 73.6872 117.45C73.7156 117.566 73.7876 117.667 73.8882 117.731L75.4908 118.656Z" fill="#51CDA6"/>
<path opacity="0.5" d="M72.8628 120.448C72.8836 120.505 72.9154 120.558 72.9565 120.602C72.9976 120.647 73.047 120.684 73.1021 120.709C73.1572 120.735 73.2168 120.749 73.2775 120.752C73.3382 120.755 73.3988 120.745 73.4559 120.725C73.513 120.704 73.5654 120.672 73.6102 120.631C73.655 120.59 73.6912 120.54 73.7169 120.485C73.7425 120.43 73.7571 120.371 73.7597 120.31C73.7624 120.249 73.753 120.188 73.7322 120.131L73.0992 118.393C73.0573 118.277 72.9713 118.183 72.8601 118.132C72.7489 118.08 72.6217 118.074 72.5064 118.116C72.3911 118.158 72.2972 118.244 72.2453 118.355C72.1935 118.466 72.1879 118.594 72.2298 118.709L72.8628 120.448Z" fill="#51CDA6"/>
<path opacity="0.4" d="M69.6978 120.131C69.677 120.189 69.6676 120.249 69.6703 120.31C69.6729 120.371 69.6875 120.43 69.7132 120.485C69.7651 120.597 69.859 120.683 69.9744 120.725C70.0898 120.767 70.2171 120.761 70.3284 120.709C70.4397 120.658 70.5258 120.564 70.5678 120.448L71.2008 118.709C71.2216 118.652 71.2309 118.591 71.2282 118.53C71.2255 118.47 71.2109 118.41 71.1852 118.355C71.1595 118.3 71.1232 118.25 71.0783 118.209C71.0335 118.168 70.981 118.136 70.9239 118.116C70.8668 118.095 70.8061 118.086 70.7454 118.088C70.6847 118.091 70.6251 118.106 70.57 118.131C70.5149 118.157 70.4655 118.193 70.4244 118.238C70.3834 118.283 70.3516 118.335 70.3308 118.393L69.6978 120.131Z" fill="#51CDA6"/>
<path opacity="0.3" d="M67.4772 117.854C67.4217 117.883 67.3726 117.923 67.3329 117.971C67.2933 118.02 67.2638 118.076 67.2462 118.136C67.2287 118.196 67.2235 118.259 67.231 118.321C67.2385 118.383 67.2584 118.443 67.2897 118.497C67.321 118.551 67.3629 118.598 67.4129 118.636C67.4629 118.673 67.52 118.7 67.5808 118.715C67.6415 118.73 67.7046 118.733 67.7664 118.722C67.8281 118.712 67.8871 118.69 67.9398 118.656L69.5424 117.731C69.643 117.667 69.715 117.566 69.7434 117.45C69.7718 117.334 69.7543 117.212 69.6947 117.109C69.635 117.005 69.5378 116.929 69.4233 116.896C69.3087 116.862 69.1857 116.874 69.0798 116.929L67.4772 117.854Z" fill="#51CDA6"/>
<path opacity="0.2" d="M67.239 114.683C67.1181 114.661 66.9938 114.689 66.8932 114.759C66.7927 114.83 66.7242 114.937 66.7029 115.058C66.6816 115.179 66.7091 115.303 66.7795 115.404C66.8499 115.504 66.9573 115.573 67.0782 115.594L68.901 115.916C69.0219 115.937 69.1462 115.91 69.2468 115.839C69.3473 115.769 69.4158 115.661 69.4371 115.541C69.4584 115.42 69.4309 115.295 69.3605 115.195C69.2901 115.094 69.1827 115.026 69.0618 115.004L67.239 114.683Z" fill="#51CDA6"/>
<path opacity="0.1" d="M69.0954 112.1C69.0564 112.054 69.0085 112.015 68.9547 111.987C68.9008 111.959 68.8419 111.942 68.7814 111.937C68.7209 111.932 68.6599 111.938 68.602 111.957C68.5441 111.975 68.4903 112.004 68.4438 112.043C68.3973 112.082 68.3589 112.13 68.3309 112.184C68.3028 112.238 68.2856 112.297 68.2804 112.357C68.2751 112.418 68.2817 112.479 68.3 112.537C68.3183 112.595 68.3478 112.648 68.3868 112.695L69.5766 114.113C69.6555 114.207 69.7684 114.266 69.8906 114.276C70.0128 114.287 70.1342 114.249 70.2282 114.17C70.3222 114.091 70.381 113.978 70.3917 113.856C70.4023 113.734 70.3641 113.612 70.2852 113.518L69.0954 112.1Z" fill="#51CDA6"/>
<path opacity="0.398" d="M35.1636 119.42C43.7592 123.054 50.7492 120.596 56.1348 112.045C64.212 99.2184 75.1068 98.4468 83.5494 106.688C91.9926 114.93 97.0482 122.983 114.058 121.58C123.274 120.588 129.5 112.85 132.738 98.367" stroke="url(#paint5_linear_153_34835)" stroke-width="0.881" stroke-linecap="round" stroke-dasharray="2.64 2.64"/>
<defs>
<linearGradient id="paint0_linear_153_34835" x1="107.11" y1="48.3906" x2="107.11" y2="115.479" gradientUnits="userSpaceOnUse">
<stop stop-color="#DCDCE4"/>
<stop offset="1" stop-color="#DEDEE6" stop-opacity="0"/>
</linearGradient>
<linearGradient id="paint1_linear_153_34835" x1="68.511" y1="93.9" x2="68.511" y2="124.437" gradientUnits="userSpaceOnUse">
<stop stop-color="#DCDCE4"/>
<stop offset="1" stop-color="#DEDEE6" stop-opacity="0"/>
</linearGradient>
<linearGradient id="paint2_linear_153_34835" x1="125.617" y1="54.4056" x2="125.617" y2="124.733" gradientUnits="userSpaceOnUse">
<stop stop-color="#ECECF0"/>
<stop offset="1" stop-color="#D8D8E4"/>
</linearGradient>
<linearGradient id="paint3_linear_153_34835" x1="129.319" y1="54.4056" x2="129.319" y2="119.074" gradientUnits="userSpaceOnUse">
<stop stop-color="#F8F8FB"/>
<stop offset="1" stop-color="#FAFAFE"/>
</linearGradient>
<linearGradient id="paint4_linear_153_34835" x1="70.38" y1="109.032" x2="75.153" y2="123.189" gradientUnits="userSpaceOnUse">
<stop stop-color="white"/>
<stop offset="1" stop-color="#E8E8EF"/>
</linearGradient>
<linearGradient id="paint5_linear_153_34835" x1="44.6634" y1="110.656" x2="82.302" y2="99.705" gradientUnits="userSpaceOnUse">
<stop stop-color="#FFD685" stop-opacity="0.252"/>
<stop offset="1" stop-color="#FFB829"/>
</linearGradient>
</defs>
</svg>
