<svg width="240" height="180" viewBox="0 0 240 180" fill="none" xmlns="http://www.w3.org/2000/svg">
<g clip-path="url(#clip0_156_34835)">
<path d="M116.035 137.971C145.377 137.971 169.163 132.764 169.163 126.341C169.163 119.918 145.377 114.711 116.035 114.711C86.6934 114.711 62.9076 119.918 62.9076 126.341C62.9076 132.764 86.6934 137.971 116.035 137.971Z" fill="url(#paint0_linear_156_34835)"/>
<path opacity="0.302" d="M131.981 103.274C137.651 102.363 139.946 101.678 145.481 96.357C151.018 91.0362 156.631 98.799 164.956 95.6826C173.281 92.5656 174.042 88.7922 186.776 100.351C192.646 105.264 197.314 103.319 200.191 105.264C202.109 106.561 203.958 109.756 205.738 114.852H131.981C126.108 112.814 123.172 111.121 123.172 109.774C123.172 107.752 126.311 104.184 131.981 103.274Z" fill="url(#paint1_linear_156_34835)"/>
<path opacity="0.302" d="M172.814 47.1C177.466 47.1 181.454 49.539 183.133 53.007H183.996C188.561 53.007 192.262 56.7078 192.262 61.2732V62.094C192.262 66.6594 188.561 70.3602 183.996 70.3602H162.466C157.901 70.3602 154.2 66.6594 154.2 62.094V61.2732C154.2 56.7078 157.901 53.0076 162.466 53.0076H162.496C164.175 49.539 168.163 47.1 172.814 47.1Z" fill="url(#paint2_linear_156_34835)"/>
<path opacity="0.302" d="M49.5138 81.0708C55.1838 80.1606 57.4788 79.4754 63.0144 74.1546C68.5506 68.8338 74.1636 76.5966 82.4892 73.4796C90.8142 70.3632 91.575 66.5898 104.309 78.1488C110.179 83.061 114.847 81.1164 117.724 83.061C119.642 84.3576 121.491 87.5538 123.271 92.6496H49.5138C43.641 90.6108 40.7046 88.9182 40.7046 87.5706C40.7046 85.5498 43.8438 81.9816 49.5138 81.0708Z" fill="url(#paint3_linear_156_34835)"/>
<g clip-path="url(#clip1_156_34835)">
<path d="M133.587 112.754V65.6473H98.0128V112.754H133.587Z" fill="url(#paint4_linear_156_34835)"/>
<path d="M139.699 64.2089H91.9014V82.9077H139.699V64.2089Z" fill="url(#paint5_linear_156_34835)"/>
<path d="M139.699 85.0652H91.9014V103.764H139.699V85.0652Z" fill="url(#paint6_linear_156_34835)"/>
<path d="M139.699 105.922H91.9014V124.62H139.699V105.922Z" fill="url(#paint7_linear_156_34835)"/>
<path d="M139.699 72.1373H91.9014V75.014H139.699V72.1373Z" fill="#B4EAD9"/>
<path d="M139.699 92.9936H91.9014V95.8703H139.699V92.9936Z" fill="#B4EAD9"/>
<path d="M139.699 113.85H91.9014V116.727H139.699V113.85Z" fill="#B4EAD9"/>
<path d="M130.395 67.9847C130.999 67.9847 131.489 67.5017 131.489 66.9059C131.489 66.3101 130.999 65.8271 130.395 65.8271C129.79 65.8271 129.3 66.3101 129.3 66.9059C129.3 67.5017 129.79 67.9847 130.395 67.9847Z" fill="#B4EAD9"/>
<path d="M134.226 67.9847C134.83 67.9847 135.32 67.5017 135.32 66.9059C135.32 66.3101 134.83 65.8271 134.226 65.8271C133.621 65.8271 133.131 66.3101 133.131 66.9059C133.131 67.5017 133.621 67.9847 134.226 67.9847Z" fill="#B4EAD9"/>
<path d="M138.057 67.9847C138.661 67.9847 139.151 67.5017 139.151 66.9059C139.151 66.3101 138.661 65.8271 138.057 65.8271C137.452 65.8271 136.962 66.3101 136.962 66.9059C136.962 67.5017 137.452 67.9847 138.057 67.9847Z" fill="#B4EAD9"/>
<path d="M130.395 88.4813C130.999 88.4813 131.489 87.9984 131.489 87.4026C131.489 86.8068 130.999 86.3238 130.395 86.3238C129.79 86.3238 129.3 86.8068 129.3 87.4026C129.3 87.9984 129.79 88.4813 130.395 88.4813Z" fill="#B4EAD9"/>
<path d="M134.226 88.4813C134.83 88.4813 135.32 87.9984 135.32 87.4026C135.32 86.8068 134.83 86.3238 134.226 86.3238C133.621 86.3238 133.131 86.8068 133.131 87.4026C133.131 87.9984 133.621 88.4813 134.226 88.4813Z" fill="#B4EAD9"/>
<path d="M138.057 88.4813C138.661 88.4813 139.151 87.9984 139.151 87.4026C139.151 86.8068 138.661 86.3238 138.057 86.3238C137.452 86.3238 136.962 86.8068 136.962 87.4026C136.962 87.9984 137.452 88.4813 138.057 88.4813Z" fill="#B4EAD9"/>
<path d="M130.395 108.978C130.999 108.978 131.489 108.495 131.489 107.899C131.489 107.304 130.999 106.821 130.395 106.821C129.79 106.821 129.3 107.304 129.3 107.899C129.3 108.495 129.79 108.978 130.395 108.978Z" fill="#B4EAD9"/>
<path d="M134.226 108.978C134.83 108.978 135.32 108.495 135.32 107.899C135.32 107.304 134.83 106.821 134.226 106.821C133.621 106.821 133.131 107.304 133.131 107.899C133.131 108.495 133.621 108.978 134.226 108.978Z" fill="#B4EAD9"/>
<path d="M138.057 108.978C138.661 108.978 139.151 108.495 139.151 107.899C139.151 107.304 138.661 106.821 138.057 106.821C137.452 106.821 136.962 107.304 136.962 107.899C136.962 108.495 137.452 108.978 138.057 108.978Z" fill="#B4EAD9"/>
</g>
<path d="M140 49.5428L143.612 60.0866L143.753 60.4991L144.181 60.4152L155.118 58.2714L147.793 66.6714L147.507 67L147.793 67.3286L155.118 75.7286L144.181 73.5848L143.753 73.5009L143.612 73.9134L140 84.4572L136.388 73.9134L136.247 73.5009L135.819 73.5848L124.882 75.7286L132.207 67.3286L132.493 67L132.207 66.6714L124.882 58.2714L135.819 60.4152L136.247 60.4991L136.388 60.0866L140 49.5428Z" fill="white" stroke="#D9DBDE"/>
</g>
<defs>
<linearGradient id="paint0_linear_156_34835" x1="87.099" y1="126.029" x2="152.96" y2="132.487" gradientUnits="userSpaceOnUse">
<stop stop-color="#F8F8FB"/>
<stop offset="1" stop-color="#F1F1F5"/>
</linearGradient>
<linearGradient id="paint1_linear_156_34835" x1="164.455" y1="92.5086" x2="164.455" y2="114.852" gradientUnits="userSpaceOnUse">
<stop stop-color="#DCDCE4"/>
<stop offset="1" stop-color="#DEDEE6" stop-opacity="0"/>
</linearGradient>
<linearGradient id="paint2_linear_156_34835" x1="173.231" y1="47.1" x2="173.231" y2="70.3602" gradientUnits="userSpaceOnUse">
<stop stop-color="#DCDCE4"/>
<stop offset="1" stop-color="#DEDEE6" stop-opacity="0"/>
</linearGradient>
<linearGradient id="paint3_linear_156_34835" x1="81.9876" y1="70.3056" x2="81.9876" y2="92.6496" gradientUnits="userSpaceOnUse">
<stop stop-color="#DCDCE4"/>
<stop offset="1" stop-color="#DEDEE6" stop-opacity="0"/>
</linearGradient>
<linearGradient id="paint4_linear_156_34835" x1="128.1" y1="93.5566" x2="96.2715" y2="88.3469" gradientUnits="userSpaceOnUse">
<stop stop-color="#E3E3E4"/>
<stop offset="1" stop-color="#D4D4DB"/>
</linearGradient>
<linearGradient id="paint5_linear_156_34835" x1="120.22" y1="67.0931" x2="118.774" y2="84.1485" gradientUnits="userSpaceOnUse">
<stop stop-color="#F4F4F9"/>
<stop offset="1" stop-color="#E3E3EA"/>
</linearGradient>
<linearGradient id="paint6_linear_156_34835" x1="120.22" y1="87.9494" x2="118.774" y2="105.005" gradientUnits="userSpaceOnUse">
<stop stop-color="#F4F4F9"/>
<stop offset="1" stop-color="#E3E3EA"/>
</linearGradient>
<linearGradient id="paint7_linear_156_34835" x1="120.22" y1="108.806" x2="118.774" y2="125.861" gradientUnits="userSpaceOnUse">
<stop stop-color="#F4F4F9"/>
<stop offset="1" stop-color="#E3E3EA"/>
</linearGradient>
<clipPath id="clip0_156_34835">
<rect width="240" height="180" fill="white"/>
</clipPath>
<clipPath id="clip1_156_34835">
<rect width="162" height="127.8" fill="white" transform="translate(34.8 -3)"/>
</clipPath>
</defs>
</svg>
