<svg t="1714462149252" class="icon" viewBox="0 0 1024 1024" version="1.1" xmlns="http://www.w3.org/2000/svg" p-id="1085" width="200" height="200"><path d="M817.92 247.04H155.008a27.072 27.072 0 1 1 0-54.08h662.784a27.072 27.072 0 1 1 0 54.144zM519.872 435.136H155.072a27.072 27.072 0 1 1 0-54.144h364.864a27.072 27.072 0 1 1 0 54.144z m-126.08 188.032H155.136a27.072 27.072 0 1 1 0-54.144h238.848a27.072 27.072 0 1 1 0 54.144z m0 187.968H155.136a27.072 27.072 0 1 1 0-54.144h238.848a27.072 27.072 0 1 1 0 54.144z m305.92 58.88a38.4 38.4 0 0 1-19.2-5.12l-152.32-87.936a38.4 38.4 0 0 1-19.2-33.152V567.808a38.4 38.4 0 0 1 19.2-33.216l152.32-87.936a38.4 38.4 0 0 1 38.336 0l152.32 87.936a38.4 38.4 0 0 1 19.2 33.28v175.872a38.4 38.4 0 0 1-19.2 33.152l-152.32 88a38.336 38.336 0 0 1-19.2 5.12zM558.592 737.28l141.056 81.408 141.056-81.408V574.336l-141.056-81.408L558.72 574.336v162.88z" fill="#262626" p-id="1086"></path><path d="M647.04 655.744a52.672 52.672 0 1 0 105.408 0 52.672 52.672 0 0 0-105.408 0z" fill="#262626" p-id="1087"></path></svg>