<svg width="148" height="118" viewBox="0 0 148 118" fill="none" xmlns="http://www.w3.org/2000/svg">
<g clip-path="url(#clip0_1480_114515)">
<path d="M124.729 112.98C125.312 113.016 125.634 112.292 125.193 111.87L125.149 111.696C125.155 111.682 125.161 111.668 125.166 111.654C125.514 110.825 126.471 110.432 127.302 110.776C129.929 111.862 127.156 114.358 127.364 116.048C127.437 116.631 129.721 116.663 129.592 117.235C130.806 114.58 131.444 111.681 131.443 108.765C131.443 108.033 131.403 107.3 131.321 106.569C131.253 105.972 131.16 105.378 131.039 104.789C130.388 101.608 128.978 98.5784 126.946 96.0482C125.969 95.5146 126.565 94.6799 126.073 93.6797C125.896 93.319 124.319 93.3108 124.253 92.9155C124.324 92.9247 125.343 91.8657 125.006 91.3422C124.785 90.9977 124.854 90.559 125.138 90.2645C125.166 90.2356 125.193 90.2052 125.217 90.1724C126.058 89.0314 127.217 89.2302 127.822 90.7801C129.115 91.4321 129.128 92.5141 128.335 93.555C127.831 94.2172 127.762 95.1131 127.32 95.8221C127.365 95.8804 127.413 95.9368 127.458 95.9951C128.294 97.0663 129.017 98.2177 129.626 99.4273C129.453 98.0828 129.707 96.4628 130.14 95.4184C130.636 94.2199 131.57 93.2117 132.388 92.175C133.364 90.937 135.352 91.4988 135.525 93.0664C135.527 93.0814 135.528 93.0965 135.53 93.1115C135.409 93.1798 135.291 93.2524 135.175 93.329C134.515 93.7658 134.744 94.7888 135.526 94.9091L135.543 94.9118C135.5 95.3473 133.955 96.7192 133.845 97.1438C134.891 101.18 134.109 101.713 130.893 101.781L130.724 102.021C131.029 102.898 131.274 103.795 131.458 104.704C131.632 105.547 131.752 106.4 131.82 107.256C131.904 108.337 131.897 109.423 131.807 110.501L131.812 110.463C132.043 109.275 132.688 108.165 133.624 107.396C135.018 106.249 136.989 105.827 138.494 104.905C139.218 104.461 140.147 105.034 140.021 105.874L140.015 105.914C139.791 106.005 139.572 106.111 139.361 106.23C139.24 106.298 139.121 106.371 139.005 106.447C138.345 106.884 138.574 107.907 139.356 108.027L139.374 108.03C139.387 108.032 139.398 108.034 139.41 108.035C139.026 108.948 135.367 110.236 134.696 110.967C134.045 114.493 134.365 114.388 131.365 113.362H131.363C131.036 114.791 130.557 116.187 129.942 117.517L124.858 117.519C124.84 117.463 124.824 117.404 124.807 117.348C125.277 117.377 125.751 117.349 126.214 117.264C125.836 116.801 125.459 116.334 125.082 115.872C125.073 115.863 125.065 115.854 125.058 115.844L125.052 115.837L124.529 114.114C124.57 113.732 124.638 113.353 124.729 112.98L124.729 112.98V112.98V112.98Z" fill="#F2F2F2"/>
<path opacity="0.302" d="M74.2762 79.1738C79.9462 78.263 82.2412 77.5778 87.7768 72.257C93.313 66.9362 98.926 74.699 107.252 71.5826C115.577 68.4656 116.337 64.6922 129.071 76.2512C134.941 81.164 139.61 79.2188 142.487 81.164C144.404 82.4606 146.253 85.6562 148.033 90.752H74.2762C68.4034 88.7138 65.467 87.0206 65.467 85.6736C65.467 83.6522 68.6062 80.084 74.2762 79.1738Z" fill="url(#paint0_linear_1480_114515)"/>
<path opacity="0.302" d="M115.11 23C119.762 23 123.749 25.439 125.429 28.907H126.291C130.856 28.907 134.557 32.6078 134.557 37.1732V37.994C134.557 42.5594 130.856 46.2602 126.291 46.2602H104.761C100.196 46.2602 96.4954 42.5594 96.4954 37.994V37.1732C96.4954 32.6078 100.196 28.9076 104.761 28.9076H104.791C106.47 25.439 110.458 23 115.11 23Z" fill="url(#paint1_linear_1480_114515)"/>
<path opacity="0.302" d="M-8.1908 56.9708C-2.5208 56.0606 -0.2258 55.3754 5.3098 50.0546C10.846 44.7338 16.459 52.4966 24.7846 49.3796C33.1096 46.2632 33.8704 42.4898 46.6042 54.0488C52.474 58.961 57.1426 57.0164 60.0196 58.961C61.9372 60.2576 63.7864 63.4538 65.566 68.5496H-8.1908C-14.0636 66.5108 -17 64.8182 -17 63.4706C-17 61.4498 -13.8608 57.8816 -8.1908 56.9708Z" fill="url(#paint2_linear_1480_114515)"/>
<path d="M71.0126 117.478L26.0326 117.493C23.7729 117.494 21.7488 116.326 20.6183 114.37C20.0529 113.391 19.7702 112.318 19.7698 111.244C19.7695 110.17 20.0516 109.097 20.6161 108.118L43.0918 67.1976C44.2211 65.24 46.2444 64.0709 48.5041 64.0701C50.7638 64.0693 52.788 65.237 53.9186 67.1939L76.4255 108.104C76.9893 109.08 77.2714 110.152 77.2715 111.225C77.2714 112.298 76.9894 113.371 76.4248 114.35C75.2956 116.308 73.2723 117.477 71.0126 117.478H71.0126H71.0126ZM20.3352 111.243C20.3352 112.22 25.2986 110.115 25.8128 111.005C26.8413 112.785 23.9766 116.93 26.0324 116.929C26.0324 116.929 74.9088 115.849 75.9361 114.068C76.4497 113.178 76.7064 112.201 76.7061 111.224C76.7057 110.248 76.4484 109.271 75.934 108.381L53.4271 67.4711C52.4015 65.696 50.5602 64.6336 48.5043 64.6343C46.4494 64.635 20.3353 110.266 20.3352 111.243H20.3352Z" fill="#B0B7C2"/>
<path d="M71.5121 116.913C70.9483 118.042 97.3547 117.695 97.6669 117.695C97.6669 117.695 105.089 117.531 105.245 117.261C105.323 117.125 105.362 116.977 105.362 116.829C105.362 116.68 105.323 116.532 105.245 116.397L101.827 110.185C101.671 109.915 101.392 109.754 101.079 109.754C101.066 109.754 101.047 109.765 101.022 109.788C96.4631 113.862 90.8442 116.556 84.7302 116.647C78.2291 116.744 71.5479 116.842 71.5121 116.913H71.5121Z" fill="#B0B7C2"/>
<path d="M2.11142e-08 117.664C6.49e-05 117.851 0.149628 118 0.33581 118L147.664 117.949C147.851 117.949 148 117.799 148 117.613C148 117.427 147.85 117.278 147.664 117.278L0.335579 117.329C0.149396 117.329 -6.48578e-05 117.478 2.11142e-08 117.664H2.11142e-08Z" fill="#CCCCCC"/>
<path d="M113.927 116.035L111.375 116.036L110.158 106.194L113.924 106.193L113.927 116.035Z" fill="#7E8694"/>
<path d="M105.185 115.98C105.106 116.114 105.064 116.546 105.064 116.701C105.064 117.18 105.452 117.567 105.931 117.567L113.832 117.564C114.158 117.564 114.422 117.3 114.422 116.973L114.422 116.644C114.422 116.644 114.813 115.655 114.008 114.437C114.008 114.437 113.008 115.392 111.513 113.897L111.072 113.099L107.882 115.434L106.114 115.652C105.727 115.7 105.384 115.645 105.185 115.98H105.185Z" fill="#7E8694"/>
<path d="M104.144 107.617L101.727 108.435L97.4224 99.5016L100.989 98.2944L104.144 107.617Z" fill="#7E8694"/>
<path d="M95.8455 110.365C95.8131 110.517 95.9119 110.94 95.9617 111.087C96.1151 111.54 96.6066 111.783 97.0596 111.63L104.544 109.097C104.853 108.992 105.019 108.657 104.914 108.347L104.808 108.036C104.808 108.036 104.862 106.974 103.709 106.078C103.709 106.078 103.067 107.302 101.173 106.366L100.499 105.751L98.2254 108.984L96.6202 109.757C96.2691 109.926 95.9265 109.984 95.8455 110.365L95.8455 110.365Z" fill="#7E8694"/>
<path d="M100.203 50.5238L95.2542 66.9148L89.4121 81.6584L98.6612 102.714L102.091 101.188L97.987 81.846L106.593 68.7213L110.608 109.693L114.038 109.501L118.69 60.046L119.353 49.2784L100.203 50.5238Z" fill="#B0B7C2"/>
<path d="M115.149 14.2143L107.908 15.5509L107.338 18.7908L102.956 20.8886L100.677 44.7111C100.677 44.7111 96.8679 49.6673 99.9173 51.1909L119.353 49.2784C119.353 49.2784 120.304 45.7547 119.352 45.4204C118.399 45.0861 118.396 36.6694 118.396 36.6694L122.773 19.3572L116.293 17.0726L115.149 14.2143Z" fill="#E6E6E6"/>
<path d="M110.878 14.1518C114.107 14.1518 116.725 11.5338 116.725 8.30427C116.725 5.07476 114.107 2.45673 110.878 2.45673C107.649 2.45673 105.031 5.07476 105.031 8.30427C105.031 11.5338 107.649 14.1518 110.878 14.1518Z" fill="#E6E6E6"/>
<path d="M114.75 9.17216C114.283 9.42761 114.726 10.6472 114.434 10.7527C114.097 10.8746 112.868 9.47551 112.853 7.90848C112.849 7.43421 112.958 7.20647 112.853 6.64415C112.715 5.90859 112.294 5.04103 111.904 5.06406C111.673 5.07771 111.447 5.40464 111.43 5.69639C111.407 6.10529 111.804 6.26623 111.746 6.48649C111.638 6.90602 109.97 7.19567 109.376 6.48731C108.911 5.93197 109.268 4.95693 109.06 4.907C108.906 4.8702 108.741 5.40702 108.112 6.01362C107.875 6.24216 107.522 6.58205 107.322 6.48802C107.033 6.35214 107.243 5.39448 107.163 5.38178C107.098 5.37127 107.056 6.04438 106.69 6.64628C106.219 7.41956 105.247 8.01559 104.794 7.75323C104.516 7.59249 104.494 7.14498 104.477 6.80509C104.442 6.08904 103.402 4.44198 103.671 3.67598C104.219 2.11694 105.158 3.21592 105.582 2.69563C106.157 1.99128 106.673 2.36997 107.636 1.58862C108.577 0.825324 108.586 0.0581442 109.216 0.00765714C109.783 -0.0378083 109.985 0.567732 110.638 0.481289C111.191 0.408061 111.312 -0.061599 111.744 0.00677977C112.14 0.0693808 112.166 0.483126 112.693 0.638619C113.029 0.737889 113.102 0.594205 113.483 0.638345C114.274 0.73019 114.806 1.45107 114.905 1.5861C115.289 2.10668 115.14 2.3262 115.538 2.85022C115.881 3.30211 116.64 3.11021 116.926 3.33591C117.86 4.07338 118.261 5.43342 118.269 6.98353C118.275 8.06772 118.133 8.61551 117.818 9.98399C117.578 11.0231 116.469 12.366 115.857 12.9648C115.693 13.1255 115.233 13.5761 114.909 13.4392C114.603 13.3095 114.593 12.7262 114.593 12.6491C114.592 12.3842 114.662 12.0564 115.225 11.2265C115.815 10.3548 116.05 10.2553 116.014 9.96193C115.951 9.44335 115.122 8.96854 114.75 9.17216H114.75Z" fill="#B0B7C2"/>
<path d="M94.3549 63.6899C94.1729 65.2141 94.8116 66.5436 95.7814 66.6594C96.7512 66.7752 97.6849 65.6335 97.8669 64.1094C97.9466 63.4422 97.869 62.8123 97.6752 62.3052L98.3653 55.8373L95.3235 55.578L94.966 61.9817C94.6583 62.4289 94.4346 63.0228 94.3549 63.6899H94.3549H94.3549Z" fill="#7E8694"/>
<path d="M103.098 20.7347C103.098 20.7347 101.523 20.7571 100.479 22.7952C99.9246 23.8782 96.9581 44.1308 96.9581 44.1308L94.2255 60.7215L98.8805 60.745L102.508 45.0332L105.559 35.9207L103.098 20.7347L103.098 20.7347Z" fill="#E6E6E6"/>
<path d="M116.198 61.2554C115.752 62.7243 116.148 64.145 117.083 64.4286C118.018 64.7123 119.137 63.7516 119.582 62.2828C119.778 61.6398 119.811 61.0061 119.709 60.4729L121.52 54.2254L118.57 53.438L117.098 59.6804C116.717 60.0669 116.393 60.6125 116.198 61.2554V61.2554Z" fill="#7E8694"/>
<path d="M119.438 19.6442C119.438 19.6442 121.724 17.9282 123.63 20.5956C125.537 23.263 126.307 45.1787 126.307 45.1787L120.976 58.7112L116.974 57.3786L120.779 40.7974L114.105 28.2218L119.438 19.6442H119.438Z" fill="#E6E6E6"/>
<path d="M61.6291 108.453C73.0017 108.453 82.2211 99.233 82.2211 87.8591C82.2211 76.4852 73.0017 67.2648 61.6291 67.2648C50.2565 67.2648 41.0371 76.4852 41.0371 87.8591C41.0371 99.233 50.2565 108.453 61.6291 108.453Z" fill="#B4EAD9"/>
<path d="M63.8228 100.613C64.867 100.613 65.7135 99.7659 65.7135 98.7216C65.7135 97.6773 64.867 96.8307 63.8228 96.8307C62.7786 96.8307 61.9321 97.6773 61.9321 98.7216C61.9321 99.7659 62.7786 100.613 63.8228 100.613Z" fill="white"/>
<path d="M65.8322 78.929C63.4339 71.297 58.0151 74.9565 55.6055 77.7402C53.2931 80.3886 50.419 84.9209 56.9435 79.2648C61.5385 75.2814 64.3249 80.4478 64.3249 81.862C64.3249 83.3453 62.9327 85.0275 61.5513 85.2797C61.0904 85.3638 60.4643 85.8885 60.5831 86.3416L62.3738 93.1704C62.4675 93.5274 62.8174 93.7546 63.1817 93.6949C63.5894 93.628 63.8559 93.2306 63.763 92.828L62.3323 86.6288C64.6903 85.6288 68.2306 86.5611 65.8322 78.929Z" fill="white"/>
<path d="M33.9918 98.3737L32.1314 102.305C34.3805 100.692 37.8935 99.3016 40.689 98.5569C38.0843 97.2986 34.897 95.2698 32.9929 93.2611L34.0629 97.4151C21.5176 94.8595 12.5086 85.2343 12.5048 74.2086L12.0517 74.0527C12.0556 85.5694 20.94 95.7645 33.9918 98.3737V98.3737Z" fill="#B0B7C2"/>
</g>
<defs>
<linearGradient id="paint0_linear_1480_114515" x1="106.75" y1="68.4086" x2="106.75" y2="90.752" gradientUnits="userSpaceOnUse">
<stop stop-color="#DCDCE4"/>
<stop offset="1" stop-color="#DEDEE6" stop-opacity="0"/>
</linearGradient>
<linearGradient id="paint1_linear_1480_114515" x1="115.526" y1="23" x2="115.526" y2="46.2602" gradientUnits="userSpaceOnUse">
<stop stop-color="#DCDCE4"/>
<stop offset="1" stop-color="#DEDEE6" stop-opacity="0"/>
</linearGradient>
<linearGradient id="paint2_linear_1480_114515" x1="24.283" y1="46.2056" x2="24.283" y2="68.5496" gradientUnits="userSpaceOnUse">
<stop stop-color="#DCDCE4"/>
<stop offset="1" stop-color="#DEDEE6" stop-opacity="0"/>
</linearGradient>
<clipPath id="clip0_1480_114515">
<rect width="148" height="118" fill="white"/>
</clipPath>
</defs>
</svg>
