<?xml version="1.0" standalone="no"?>
<svg id="logo" width="942" height="522" viewBox="0 0 942 522" fill="none" xmlns="http://www.w3.org/2000/svg" style="max-width: 100%; max-height: 100%;">
<mask id="mask0_1239_113551" style="mask-type:alpha" maskUnits="userSpaceOnUse" x="0" y="0" width="942" height="522">
<rect width="942" height="522" fill="#D9D9D9" stroke-dasharray="0,0,0,2928"><animate attributeType="XML" attributeName="stroke-dasharray" repeatCount="1" dur="2.5s" values="0,0,0,2928; 
          0,1464,1464,0; 
          2928,0,0,0" keyTimes="0; 0.5; 1" fill="freeze"></animate></rect>
</mask>
<g mask="url(#mask0_1239_113551)">
<path d="M469.424 415.45L502.405 448.431C513.243 459.27 524.432 468.855 537.307 477.404C565.28 495.98 596.731 509.047 629.977 515.705C680.229 525.768 732.336 520.738 779.735 501.248C827.134 481.758 867.708 448.679 896.346 406.178C924.984 363.676 940.406 313.65 940.671 262.401C940.937 211.152 926.032 160.97 897.836 118.174C869.639 75.3778 829.41 41.8812 782.215 21.9018C735.02 1.92245 682.968 -3.6464 632.615 5.89646C595.755 12.882 561.011 27.7365 530.676 49.2634C518.469 57.9255 508.056 67.7218 497.522 78.2551L297.006 278.772C288.033 287.744 280.563 298.105 267.708 300.968C258.631 302.991 249.136 301.858 240.789 297.758C232.442 293.658 225.742 286.835 221.794 278.414C217.847 269.994 216.887 260.48 219.074 251.441C221.261 242.402 226.464 234.379 233.825 228.695C241.185 223.011 250.263 220.005 259.561 220.175C273.02 220.42 280.845 226.872 289.76 235.787L296.791 242.818" stroke="#BCEADE" stroke-width="1.25843" stroke-dasharray="0,0,0,1768.6484375"><animate attributeType="XML" attributeName="stroke-dasharray" repeatCount="1" dur="2.5s" values="0,0,0,1768.6484375; 
          0,884.32421875,884.32421875,0; 
          1768.6484375,0,0,0" keyTimes="0; 0.5; 1" fill="freeze"></animate></path>
<path d="M317.932 221.678L308.104 211.849C293.743 197.489 277.378 188.682 256.825 189.253C240.656 189.702 225.111 195.595 212.708 205.978C200.305 216.361 191.769 230.627 188.483 246.465C185.197 262.303 187.353 278.787 194.601 293.247C201.85 307.708 213.767 319.298 228.423 326.143C243.079 332.987 259.616 334.685 275.357 330.961C292.457 326.915 303.221 317.047 315.179 305.089L512.823 107.446C530.884 89.3845 547.753 73.2919 570.461 60.7625C592.08 48.8348 615.603 40.4214 640.156 35.9689C684.489 27.9297 730.208 33.1609 771.579 51.0062C812.95 68.8516 848.13 98.5163 872.706 136.279C897.281 174.042 910.159 218.221 909.722 263.275C909.285 308.328 895.554 352.249 870.251 389.529C844.948 426.808 809.199 455.785 767.491 472.826C725.782 489.866 679.969 494.21 635.801 485.313C603.283 478.763 572.722 465.25 546.149 445.864C532.317 435.773 520.261 423.85 508.135 411.858C507.483 411.214 506.831 410.569 506.179 409.925L490.707 394.453" stroke="#BCEADE" stroke-width="1.25843" stroke-dasharray="0,0,0,1768.034423828125"><animate attributeType="XML" attributeName="stroke-dasharray" repeatCount="1" dur="2.5s" values="0,0,0,1768.034423828125; 
          0,884.0172119140625,884.0172119140625,0; 
          1768.034423828125,0,0,0" keyTimes="0; 0.5; 1" fill="freeze"></animate></path>
<path d="M513.319 373.145L533.845 393.671C534.284 394.11 534.723 394.549 535.161 394.988C542.277 402.109 549.371 409.209 557.2 415.581C582.142 435.883 611.745 449.864 643.486 456.178C681.859 463.81 721.633 459.893 757.779 444.921C793.925 429.949 824.82 404.594 846.556 372.063C868.293 339.533 879.894 301.287 879.894 262.162C879.894 223.038 868.293 184.792 846.556 152.262C824.82 119.731 793.925 94.3764 757.779 79.4041C721.633 64.4319 681.859 60.5145 643.486 68.1473C622.791 72.2637 603.006 79.6399 584.828 89.9022C565.227 100.968 550.487 115.803 534.793 131.6L533.992 132.406L334.613 331.785C326.874 339.524 319.274 346.786 309.653 352.106C301.009 356.885 291.676 360.418 281.929 362.555C262.737 366.762 242.742 365.379 224.312 358.572C205.882 351.764 189.789 339.817 177.941 324.145C166.092 308.472 158.983 289.732 157.457 270.145C155.932 250.557 160.052 230.942 169.331 213.624C178.61 196.306 192.658 182.01 209.811 172.431C226.965 162.851 246.505 158.389 266.116 159.573C278.014 160.291 289.636 163.069 300.483 167.728C310.712 172.122 317.947 177.898 325.764 185.59L339.892 199.718" stroke="#BCEADE" stroke-width="1.25843" stroke-dasharray="0,0,0,1767.7193603515625"><animate attributeType="XML" attributeName="stroke-dasharray" repeatCount="1" dur="2.5s" values="0,0,0,1767.7193603515625; 
          0,883.8596801757812,883.8596801757812,0; 
          1767.7193603515625,0,0,0" keyTimes="0; 0.5; 1" fill="freeze"></animate></path>
<path d="M383.812 155.798L370.082 142.068C357.986 130.273 346.102 120.812 330.65 113.463C311.483 104.346 290.646 98.98 269.267 97.7649C237.868 95.9803 206.615 103.225 179.203 118.642C151.792 134.059 129.369 157.003 114.586 184.762C99.8026 212.52 93.2781 243.932 95.7837 275.281C98.2893 306.631 109.72 336.607 128.725 361.665C147.729 386.723 173.512 405.815 203.024 416.682C232.537 427.549 264.544 429.738 295.261 422.988C316.608 418.298 336.712 409.427 354.454 396.987C363.894 390.368 371.819 382.432 379.916 374.323C380.438 373.8 380.962 373.276 381.486 372.752L586.448 167.789C597.632 156.605 608.008 147.066 622.402 140.033C638.266 132.282 655.56 127.66 673.336 126.514C699.294 124.841 725.187 130.651 747.941 143.255C770.696 155.858 789.356 174.726 801.707 197.619C814.058 220.511 819.582 246.467 817.622 272.404C815.662 298.342 806.301 323.173 790.65 343.95C774.999 364.726 753.715 380.575 729.325 389.617C704.935 398.658 678.463 400.511 653.051 394.956C621.617 388.085 598.549 370.535 576.375 348.361L556.742 328.728" stroke="#BCEADE" stroke-width="1.25843" stroke-dasharray="0,0,0,1768.226806640625"><animate attributeType="XML" attributeName="stroke-dasharray" repeatCount="1" dur="2.5s" values="0,0,0,1768.226806640625; 
          0,884.1134033203125,884.1134033203125,0; 
          1768.226806640625,0,0,0" keyTimes="0; 0.5; 1" fill="freeze"></animate></path>
<path d="M406.57 132.303L403.878 129.612C394.839 120.572 385.919 111.651 375.653 103.962C342.999 79.5063 302.447 65.0215 258.511 65.0215C150.481 65.0215 62.9049 152.597 62.9049 260.627C62.9049 368.658 150.481 456.233 258.511 456.233C293.601 456.233 326.532 446.994 355.005 430.816C370.821 421.829 382.614 410.387 395.338 397.662L600.89 192.11C609.192 183.809 617.346 176.043 627.62 170.028C639.536 163.051 652.776 158.456 666.604 156.587C687.809 153.721 709.384 157.403 728.439 167.14C747.493 176.877 763.118 192.204 773.219 211.068C783.32 229.932 787.416 251.432 784.958 272.689C782.499 293.945 773.604 313.943 759.464 330.003C745.324 346.064 726.614 357.42 705.84 362.551C685.066 367.682 663.22 366.342 643.229 358.712C629.389 353.429 620.243 345.977 610.042 335.776L578.214 303.947" stroke="#BCEADE" stroke-width="1.25843" stroke-dasharray="0,0,0,1770.36083984375"><animate attributeType="XML" attributeName="stroke-dasharray" repeatCount="1" dur="2.5s" values="0,0,0,1770.36083984375; 
          0,885.180419921875,885.180419921875,0; 
          1770.36083984375,0,0,0" keyTimes="0; 0.5; 1" fill="freeze"></animate></path>
<path d="M427.731 111.878L412.429 96.5758C381.942 66.0888 342.4 46.7944 299.936 39.1745C256.557 31.3906 211.851 36.4279 171.292 53.6693C130.733 70.9108 96.0843 99.6077 71.5892 136.245C47.0941 172.881 33.8169 215.867 33.3839 259.936C32.9509 304.005 45.381 347.244 69.1514 384.355C92.9219 421.466 127 450.838 167.212 468.873C207.424 486.908 252.024 492.823 295.547 485.893C324.095 481.347 351.366 471.405 375.96 456.738C392.896 446.638 405.862 434.004 419.672 420.194L614.665 225.201C625.883 213.983 635.573 202.356 650.029 195.415C657.256 191.945 665.035 189.654 673.073 188.669C687.24 186.933 701.608 189.329 714.445 195.569C727.283 201.808 738.043 211.625 745.431 223.838C752.819 236.051 756.519 250.139 756.087 264.406C755.654 278.673 751.107 292.511 742.993 304.254C734.879 315.996 723.544 325.144 710.352 330.594C697.16 336.045 682.674 337.566 668.637 334.975C662.805 333.898 657.153 332.131 651.795 329.729C641.036 324.907 633.66 317.807 625.535 309.682L600.83 284.977" stroke="#BCEADE" stroke-width="1.25843" stroke-dasharray="0,0,0,1768.2144775390625"><animate attributeType="XML" attributeName="stroke-dasharray" repeatCount="1" dur="2.5s" values="0,0,0,1768.2144775390625; 
          0,884.1072387695312,884.1072387695312,0; 
          1768.2144775390625,0,0,0" keyTimes="0; 0.5; 1" fill="freeze"></animate></path>
<path d="M534.316 350.294L560.851 376.829L560.839 376.842C565.85 381.854 570.869 386.724 576.406 391.177C598.309 408.788 624.365 420.627 652.182 425.499C684.141 431.097 717.039 427.257 746.849 414.448C776.659 401.64 802.089 380.419 820.026 353.383C837.963 326.346 847.629 294.667 847.842 262.222C848.055 229.778 838.804 197.974 821.223 170.705C803.642 143.436 778.492 121.884 748.852 108.686C719.213 95.4878 686.368 91.2166 654.339 96.3952C642.6 98.293 631.158 101.43 620.191 105.719C587.245 118.605 563.75 142.155 539.382 166.581L539.368 166.595C538.068 167.897 536.766 169.203 535.459 170.509L356.43 349.538C355.926 350.045 355.425 350.549 354.925 351.052C342.226 363.828 330.83 375.294 314.074 382.897C299.6 389.465 284.007 393.428 268.016 394.531C243.57 396.217 219.13 391.152 197.366 379.891C175.603 368.63 157.352 351.605 144.607 330.676C131.863 309.747 125.114 285.718 125.098 261.213C125.083 236.709 131.801 212.671 144.519 191.726C157.237 170.78 175.467 153.732 197.216 142.444C218.965 131.155 243.398 126.06 267.847 127.714C283.086 128.746 297.965 132.375 311.863 138.381C327.046 144.942 337.934 153.912 349.437 165.415L361.816 177.794" stroke="#BCEADE" stroke-width="1.25843" stroke-dasharray="0,0,0,1768.848388671875"><animate attributeType="XML" attributeName="stroke-dasharray" repeatCount="1" dur="2.5s" values="0,0,0,1768.848388671875; 
          0,884.4241943359375,884.4241943359375,0; 
          1768.848388671875,0,0,0" keyTimes="0; 0.5; 1" fill="freeze"></animate></path>
<path d="M449.299 90.311L421.123 62.1357C412.429 54.3999 400.394 45.5777 389.053 38.9283C356.814 20.0264 320.725 8.2993 283.257 4.72703C234.699 0.0973335 185.825 9.35536 142.324 31.4234C98.8236 53.4913 62.4858 87.4614 37.5413 129.379C12.5968 171.297 0.071752 219.437 1.42422 268.197C2.77669 316.956 17.9511 364.329 45.1808 404.799C72.4105 445.269 110.575 477.173 155.233 496.796C199.89 516.418 249.202 522.953 297.429 515.639C341.042 509.024 382.145 491.329 416.85 464.351C423.001 459.569 428.571 454.428 434.072 448.927L647.82 235.182C657.707 225.295 668.006 217.479 682.477 217.984C690.512 218.265 698.308 220.787 704.985 225.266C711.661 229.745 716.952 236.003 720.258 243.331C723.565 250.659 724.756 258.766 723.697 266.736C722.638 274.706 719.37 282.221 714.264 288.431C709.158 294.641 702.416 299.299 694.802 301.878C687.187 304.458 679.002 304.856 671.173 303.028C663.344 301.2 656.182 297.219 650.497 291.534L650.509 291.522L622.557 263.57" stroke="#BCEADE" stroke-width="1.25843" stroke-dasharray="0,0,0,1767.765625"><animate attributeType="XML" attributeName="stroke-dasharray" repeatCount="1" dur="2.5s" values="0,0,0,1767.765625; 
          0,883.8828125,883.8828125,0; 
          1767.765625,0,0,0" keyTimes="0; 0.5; 1" fill="freeze"></animate></path>
</g>
<setting>{"type":"direct","speed":20,"random":1,"shift":1,"size":1,"rupture":50}</setting></svg>