<svg width="240" height="180" viewBox="0 0 240 180" fill="none" xmlns="http://www.w3.org/2000/svg">
<path d="M116.035 137.971C145.377 137.971 169.163 132.764 169.163 126.341C169.163 119.918 145.377 114.711 116.035 114.711C86.6934 114.711 62.9076 119.918 62.9076 126.341C62.9076 132.764 86.6934 137.971 116.035 137.971Z" fill="url(#paint0_linear_144_34830)"/>
<path opacity="0.302" d="M131.981 103.274C137.651 102.363 139.946 101.678 145.481 96.357C151.018 91.0362 156.631 98.799 164.956 95.6826C173.281 92.5656 174.042 88.7922 186.776 100.351C192.646 105.264 197.314 103.319 200.191 105.264C202.109 106.561 203.958 109.756 205.738 114.852H131.981C126.108 112.814 123.172 111.121 123.172 109.774C123.172 107.752 126.311 104.184 131.981 103.274Z" fill="url(#paint1_linear_144_34830)"/>
<path opacity="0.302" d="M172.814 47.1C177.466 47.1 181.454 49.539 183.133 53.007H183.996C188.561 53.007 192.262 56.7078 192.262 61.2732V62.094C192.262 66.6594 188.561 70.3602 183.996 70.3602H162.466C157.901 70.3602 154.2 66.6594 154.2 62.094V61.2732C154.2 56.7078 157.901 53.0076 162.466 53.0076H162.496C164.175 49.539 168.163 47.1 172.814 47.1Z" fill="url(#paint2_linear_144_34830)"/>
<path opacity="0.302" d="M49.5138 81.0708C55.1838 80.1606 57.4788 79.4754 63.0144 74.1546C68.5506 68.8338 74.1636 76.5966 82.4892 73.4796C90.8142 70.3632 91.575 66.5898 104.309 78.1488C110.179 83.061 114.847 81.1164 117.724 83.061C119.642 84.3576 121.491 87.5538 123.271 92.6496H49.5138C43.641 90.6108 40.7046 88.9182 40.7046 87.5706C40.7046 85.5498 43.8438 81.9816 49.5138 81.0708Z" fill="url(#paint3_linear_144_34830)"/>
<rect width="28.5921" height="28.5921" transform="matrix(0.866025 -0.5 2.20305e-08 1 114.708 101.519)" fill="url(#paint4_linear_144_34830)"/>
<rect width="28.5921" height="28.5921" transform="matrix(0.866025 0.5 -2.20305e-08 1 90.0149 87.2231)" fill="url(#paint5_linear_144_34830)"/>
<rect width="28.5921" height="28.5921" transform="matrix(0.866025 0.5 -0.866025 0.5 114.776 72.9271)" fill="url(#paint6_linear_144_34830)"/>
<path d="M93.4807 109.75L95.7317 111.05L95.7317 113.649L93.4807 112.349L93.4807 109.75Z" fill="white"/>
<path d="M95.7317 108.45L97.9827 109.75L97.9827 112.349L95.7317 111.05L95.7317 108.45Z" fill="white"/>
<path d="M94.6062 109.1L96.8572 110.4L96.8572 112.999L94.6062 111.7L94.6062 109.1Z" fill="white"/>
<path d="M105.486 114.082L107.737 115.382L107.737 117.981L105.486 116.682L105.486 114.082Z" fill="white"/>
<path d="M106.612 116.032L108.863 117.331L108.863 119.931L106.612 118.631L106.612 116.032Z" fill="white"/>
<path d="M97.2324 108.45L99.4834 109.75L99.4834 112.349L97.2324 111.05L97.2324 108.45Z" fill="white"/>
<path d="M99.4834 109.317L101.734 110.617L101.734 113.216L99.4834 111.916L99.4834 109.317Z" fill="white"/>
<path d="M101.734 110.617L103.986 111.916L103.986 114.515L101.734 113.216L101.734 110.617Z" fill="white"/>
<path d="M103.986 112.349L106.237 113.649L106.237 116.248L103.986 114.949L103.986 112.349Z" fill="white"/>
<path d="M108.488 118.414L110.739 119.714L110.739 122.313L108.488 121.014L108.488 118.414Z" fill="white"/>
<path d="M95.7317 97.187L97.9828 98.4867L97.9828 101.086L95.7317 99.7863L95.7317 97.187Z" fill="white"/>
<path d="M106.237 103.252L108.488 104.552L108.488 107.151L106.237 105.851L106.237 103.252Z" fill="white"/>
<rect opacity="0.8" width="18.0079" height="18.0079" transform="matrix(0.866025 -0.5 2.20305e-08 1 128.552 80.0079)" fill="#82DBBF"/>
<rect opacity="0.8" width="18.0079" height="18.0079" transform="matrix(0.866025 0.5 -2.20305e-08 1 113 71.0039)" fill="#B4EAD9"/>
<rect width="18.0079" height="18.0079" transform="matrix(0.866025 0.5 -0.866025 0.5 128.595 62)" fill="#CDF1E6"/>
<path fill-rule="evenodd" clip-rule="evenodd" d="M125.404 69.2622C123.738 70.2241 123.738 71.7837 125.404 72.7456C127.07 73.7075 129.771 73.7075 131.437 72.7456C133.103 71.7837 133.103 70.2241 131.437 69.2622C129.771 68.3004 127.07 68.3004 125.404 69.2622ZM124.733 73.1326C122.697 71.957 122.697 70.0508 124.733 68.8752C126.77 67.6996 130.071 67.6996 132.107 68.8752C134.144 70.0508 134.144 71.957 132.107 73.1326C130.071 74.3082 126.77 74.3082 124.733 73.1326Z" fill="white"/>
<path d="M130.096 71.9715C130.281 71.8646 130.582 71.8646 130.767 71.9715C130.952 72.0784 130.952 72.2517 130.767 72.3586C130.582 72.4654 130.281 72.4654 130.096 72.3586C129.911 72.2517 129.911 72.0784 130.096 71.9715Z" fill="white"/>
<path fill-rule="evenodd" clip-rule="evenodd" d="M126.409 69.8428C126.594 69.7359 126.895 69.7359 127.08 69.8428L129.429 71.1989C129.614 71.3058 129.614 71.4791 129.429 71.5859C129.243 71.6928 128.943 71.6928 128.758 71.5859L126.409 70.2298C126.224 70.123 126.224 69.9497 126.409 69.8428Z" fill="white"/>
<path d="M148.5 75.6506L151.201 84.1479L151.339 84.5825L151.785 84.4848L160.494 82.5753L154.486 89.1631L154.178 89.5L154.486 89.8369L160.494 96.4247L151.785 94.5152L151.339 94.4175L151.201 94.8521L148.5 103.349L145.799 94.8521L145.661 94.4175L145.215 94.5152L136.506 96.4247L142.514 89.8369L142.822 89.5L142.514 89.1631L136.506 82.5753L145.215 84.4848L145.661 84.5825L145.799 84.1479L148.5 75.6506Z" fill="white" stroke="#D9DBDE"/>
<defs>
<linearGradient id="paint0_linear_144_34830" x1="87.099" y1="126.029" x2="152.96" y2="132.487" gradientUnits="userSpaceOnUse">
<stop stop-color="#F8F8FB"/>
<stop offset="1" stop-color="#F1F1F5"/>
</linearGradient>
<linearGradient id="paint1_linear_144_34830" x1="164.455" y1="92.5086" x2="164.455" y2="114.852" gradientUnits="userSpaceOnUse">
<stop stop-color="#DCDCE4"/>
<stop offset="1" stop-color="#DEDEE6" stop-opacity="0"/>
</linearGradient>
<linearGradient id="paint2_linear_144_34830" x1="173.231" y1="47.1" x2="173.231" y2="70.3602" gradientUnits="userSpaceOnUse">
<stop stop-color="#DCDCE4"/>
<stop offset="1" stop-color="#DEDEE6" stop-opacity="0"/>
</linearGradient>
<linearGradient id="paint3_linear_144_34830" x1="81.9876" y1="70.3056" x2="81.9876" y2="92.6496" gradientUnits="userSpaceOnUse">
<stop stop-color="#DCDCE4"/>
<stop offset="1" stop-color="#DEDEE6" stop-opacity="0"/>
</linearGradient>
<linearGradient id="paint4_linear_144_34830" x1="16.9401" y1="4.41007" x2="11.5024" y2="29.4984" gradientUnits="userSpaceOnUse">
<stop stop-color="#F4F4F9"/>
<stop offset="1" stop-color="#E3E3EA"/>
</linearGradient>
<linearGradient id="paint5_linear_144_34830" x1="16.9401" y1="4.41007" x2="11.5024" y2="29.4984" gradientUnits="userSpaceOnUse">
<stop stop-color="#F4F4F9"/>
<stop offset="1" stop-color="#E3E3EA"/>
</linearGradient>
<linearGradient id="paint6_linear_144_34830" x1="16.9401" y1="4.41007" x2="11.5024" y2="29.4984" gradientUnits="userSpaceOnUse">
<stop stop-color="#F4F4F9"/>
<stop offset="1" stop-color="#E3E3EA"/>
</linearGradient>
</defs>
</svg>
