<svg width="240" height="180" viewBox="0 0 240 180" fill="none" xmlns="http://www.w3.org/2000/svg">
<g clip-path="url(#clip0_139_35459)">
<path fill-rule="evenodd" clip-rule="evenodd" d="M127.698 47.556C136.331 46.1772 139.826 45.1404 148.255 37.0842C156.683 29.0286 165.23 40.7814 177.907 36.063C190.582 31.344 191.741 25.6308 211.129 43.131C220.066 50.5692 227.175 47.625 231.556 50.5692C234.476 52.5318 237.29 57.3708 240 65.0856H127.698C118.757 61.9998 114.286 59.4366 114.286 57.3966C114.286 54.3366 119.065 48.9342 127.698 47.556Z" fill="url(#paint0_linear_139_35459)"/>
<path fill-rule="evenodd" clip-rule="evenodd" d="M125.894 151.028C214.57 151.028 166.322 144.128 183.223 139.786C198.426 135.878 220.343 134.809 220.343 129.548C220.343 118.439 180.527 110.8 125.894 110.8C71.2608 110.8 26.9718 119.806 26.9718 130.915C26.9718 142.023 71.2608 151.028 125.894 151.028Z" fill="url(#paint1_linear_139_35459)"/>
<path fill-rule="evenodd" clip-rule="evenodd" d="M190.097 100.961H191.384C191.838 100.961 192.206 101.329 192.206 101.783V115.089C192.206 115.197 192.185 115.304 192.144 115.404C192.102 115.503 192.042 115.594 191.965 115.67C191.889 115.747 191.798 115.807 191.699 115.849C191.599 115.89 191.492 115.911 191.384 115.911H190.097C189.989 115.911 189.882 115.89 189.782 115.849C189.682 115.807 189.592 115.747 189.515 115.67C189.439 115.594 189.378 115.503 189.337 115.404C189.295 115.304 189.274 115.197 189.274 115.089V101.783C189.274 101.329 189.643 100.961 190.097 100.961Z" fill="#F0F0F3" fill-opacity="0.9"/>
<path fill-rule="evenodd" clip-rule="evenodd" d="M187.733 83.1228C185.01 88.7088 175.633 105.841 188.772 107.759C201.911 109.677 201.325 98.274 199.021 94.1934C196.717 90.1128 194.115 87.8274 194.115 83.1228C194.115 78.4188 190.457 77.5374 187.733 83.1228Z" fill="url(#paint2_linear_139_35459)"/>
<path fill-rule="evenodd" clip-rule="evenodd" d="M116.983 131.371H117.989C118.216 131.371 118.4 131.555 118.4 131.783V139.189C118.4 139.298 118.357 139.402 118.28 139.48C118.203 139.557 118.098 139.6 117.989 139.6H116.983C116.874 139.6 116.769 139.557 116.692 139.48C116.615 139.402 116.572 139.298 116.572 139.189V131.783C116.572 131.555 116.756 131.371 116.983 131.371Z" fill="#FBFBFE"/>
<path fill-rule="evenodd" clip-rule="evenodd" d="M115.941 120.725C114.517 123.838 109.616 133.382 116.483 134.452C123.35 135.52 123.044 129.167 121.84 126.893C120.635 124.619 119.276 123.347 119.276 120.725C119.276 118.104 117.364 117.613 115.941 120.725Z" fill="url(#paint3_linear_139_35459)"/>
<path d="M179.758 65.5088C173.23 56.707 164.839 49.4559 155.183 44.2738C145.527 39.0917 134.846 36.1065 123.903 35.5316C112.96 34.9568 102.025 36.8064 91.8791 40.9483C81.7336 45.0903 72.6284 51.4222 65.2142 59.4916L120 109.829L179.758 65.5088Z" fill="#ECECF0"/>
<path d="M158.672 81.9502C154.513 76.4136 149.167 71.8524 143.015 68.5927C136.863 65.333 130.058 63.4552 123.087 63.0936C116.115 62.732 109.148 63.8955 102.684 66.5009C96.2206 69.1063 90.4197 73.0893 85.6961 78.1652L120.6 109.829L158.672 81.9502Z" fill="#B4EAD9"/>
<path d="M95.9301 61.5212L137.001 102.593L135.28 104.152L94.2088 63.0809L95.9301 61.5212Z" fill="#B4EAD9"/>
<path d="M95.6924 58.1595L136.764 99.2309L135.043 100.791L93.9711 59.7192L95.6924 58.1595Z" fill="#ECECF0"/>
<path d="M127.2 37.8292L124.906 40.4633L119.4 46.7853L127.2 51.5267L120.318 59.4292" stroke="white" stroke-width="4"/>
<path d="M166.5 29.5953L169.7 39.2914L169.84 39.715L170.277 39.6243L180.274 37.5477L173.477 45.1672L173.18 45.5L173.477 45.8328L180.274 53.4523L170.277 51.3757L169.84 51.285L169.7 51.7086L166.5 61.4047L163.3 51.7086L163.16 51.285L162.723 51.3757L152.726 53.4523L159.523 45.8328L159.82 45.5L159.523 45.1672L152.726 37.5477L162.723 39.6243L163.16 39.715L163.3 39.2914L166.5 29.5953Z" fill="white" stroke="#D9DBDE"/>
</g>
<defs>
<linearGradient id="paint0_linear_139_35459" x1="177.143" y1="34.4442" x2="177.143" y2="65.0856" gradientUnits="userSpaceOnUse">
<stop stop-color="#F6F6F7"/>
<stop offset="1" stop-color="#FCFCFF" stop-opacity="0"/>
</linearGradient>
<linearGradient id="paint1_linear_139_35459" x1="80.5152" y1="130.424" x2="189.709" y2="151.49" gradientUnits="userSpaceOnUse">
<stop stop-color="#F9F9FC"/>
<stop offset="1" stop-color="#EDEDF2"/>
</linearGradient>
<linearGradient id="paint2_linear_139_35459" x1="191.128" y1="79.257" x2="191.128" y2="107.975" gradientUnits="userSpaceOnUse">
<stop stop-color="#EBEBEE"/>
<stop offset="1" stop-color="#FCFCFD"/>
</linearGradient>
<linearGradient id="paint3_linear_139_35459" x1="117.715" y1="118.571" x2="117.715" y2="134.572" gradientUnits="userSpaceOnUse">
<stop stop-color="#EBEBEE"/>
<stop offset="1" stop-color="#FCFCFD"/>
</linearGradient>
<clipPath id="clip0_139_35459">
<rect width="240" height="180" fill="white"/>
</clipPath>
</defs>
</svg>
